<?xml version="1.0" encoding="utf-8"?>
<!-- Generator: Adobe Illustrator 19.0.0, SVG Export Plug-In . SVG Version: 6.00 Build 0)  -->
<!DOCTYPE svg PUBLIC "-//W3C//DTD SVG 1.1//EN" "http://www.w3.org/Graphics/SVG/1.1/DTD/svg11.dtd">
<svg width="1208px" height="375px" version="1.1" id="Layer_1" xmlns="http://www.w3.org/2000/svg" xmlns:xlink="http://www.w3.org/1999/xlink" x="0px" y="0px"
	 viewBox="104.5 93.5 1208 375" style="enable-background:new 104.5 93.5 1208 375;" xml:space="preserve">
<style type="text/css">
	.st0{display:none;fill:#808080;stroke:#B3B3B3;stroke-miterlimit:10;}
	.st1{fill:#FFFFFF;}
	.st2{fill:#FEFEFE;}
	.st3{fill:#013876;}
	.st4{fill:#013976;}
	.st5{fill:#EE3E33;}
	.st6{fill:#FEFDFD;}
	.st7{fill:#FEDB1B;}
	.st8{fill:#3A3A3A;}
</style>
<rect x="41.5" y="50.5" class="st0" width="1253" height="458"/>
<rect x="104.5" y="93.5" class="st1" width="1208" height="375"/>
<g>
	<path class="st2" d="M302.6,362.9c-51.1,0-102.1,0-153.2,0c-0.6,0-0.7-0.1-0.7-0.7c0-50.9,0-101.8,0-152.7c0-0.6,0.1-0.7,0.7-0.7
		c102.1,0,204.3,0,306.4,0c0.6,0,0.7,0.1,0.7,0.7c0,50.9,0,101.8,0,152.7c0,0.6-0.1,0.7-0.7,0.7
		C404.7,362.9,353.7,362.9,302.6,362.9z M325.3,282.3c-0.1,2.9,0.1,4.9,0.5,6.8c0.5,2.4,1.2,4.7,2.3,6.9c0.2,0.5,0.4,1,0.8,1.3
		c0.5,0.4,1-0.3,1.4-0.4c3.1-1.1,6.2-0.9,9.3-0.4c2.8,0.4,5.4,1.4,8.1,2.2c1.6,0.5,3.2,1,4.9,1.1c3.4,0.2,6.8-0.2,10.2-1
		c3-0.7,5.9-1.9,8.8-2.9c2.7-0.9,5.5-1.3,8.3-0.7c2.5,0.5,4.9,1.3,7.5,1.5c2.2,0.1,4.4,0.1,6.5-0.4c2.2-0.6,4.2-1.6,6.3-2.5
		c1.4-0.6,2.8-1.1,4.3-1.5c2.9-0.7,5.8-0.2,8.6,0.4c3.5,0.8,7.1,1.1,10.7,0.2c3.9-1,7.7-2,11.8-2c2.3,0,4.6,0.1,6.9,0.4
		c1.5,0.2,3,0.6,4.5,0.5c2.5-0.2,4.9-0.9,7.3-1.8c0.5-0.2,0.5-0.4,0.1-0.8c-0.8-0.9-1.6-1.8-2.3-2.7c-1.8-2.5-3.6-5-5.2-7.6
		c-1.9-3.1-3.4-6.3-4.6-9.7c-1-3-1.8-6-2.4-9.1c-0.9-4.1-2.9-7.6-5.4-10.9c-1.7-2.2-3.1-4.5-4.2-7c-1.8-4.2-3-8.6-4.6-12.9
		c-1.3-3.5-3-6.8-4.7-10.1c-0.2-0.4-0.6-0.7-1.1-0.6c-0.5,0.1-1.1,0-1.7-0.1c-1.3-0.3-2.4-1-3.5-1.6c-1.7-0.9-3.4-1.5-5.3-1.6
		c-2-0.1-4,0.3-5.9,0.7c-2.1,0.5-4.3,1-6.5,1.1c-2.4,0.1-4.7-0.6-7-1.3c-1.6-0.5-3.3-0.6-5-0.3c-2.6,0.5-5.1,1.5-7.8,2
		c-2.1,0.4-4.2,0.4-6.4-0.1c-3.2-0.6-5.8-2.4-8.5-4c-1.7-1-3.4-1.8-5.4-1.9c-3-0.1-5.8,0.4-8.6,1.4c-2.5,0.9-5.1,1.6-7.8,1.2
		c-1.9-0.3-3.7-0.8-5.5-1.6c-3.7-1.6-7.6-2.7-11.7-2.6c-1.8,0-3.7,0.1-5.5,0.3c-2.3,0.2-4.6,0.4-6.9,0.9c-0.6,0.1-0.5,0.3-0.3,0.6
		c1.4,2.8,2.6,5.6,3.7,8.5c1.8,4.8,2.9,9.7,2.9,14.9c0,2.8-0.4,5.6-0.2,8.4c0.2,3.1,0.8,6.2,1.7,9.1c1.1,3.6,2.8,6.9,4.4,10.3
		c0.9,2.1,1.7,4.2,1.9,6.5c0.2,2.1,0.3,4.2,0.2,6.3C325.5,278.6,325.3,280.9,325.3,282.3z M277.8,321.9c0-0.3,0-0.6,0-0.9
		c0-5.9,0-11.7,0-17.6c0-0.7-0.2-0.9-0.9-0.9c-2.6,0-5.3,0-7.9,0c-0.8,0-1,0.2-1,1c0,17.7,0,35.4,0,53.1c0,1.2,0.3,1.9,1.5,2.3
		c6.4,2.4,12.8,2.7,19.4,0.7c5.4-1.6,9.7-4.9,12.3-10c2.2-4.2,2.8-8.8,2.2-13.5c-0.5-3.9-2-7.4-4.9-10.2c-3.7-3.7-8.3-5.1-13.4-5.1
		C282.7,320.8,280.3,321.2,277.8,321.9z M385.1,345.5c0-3.7,0-6.9,0-10.1c0-1.1,0-2.3-0.1-3.4c-0.5-5.5-3.7-9.2-9.1-10.6
		c-2.8-0.7-5.6-0.7-8.5-0.6c-4.3,0.2-8.4,1.4-12,3.8c-0.4,0.3-0.5,0.5-0.3,1c0.9,1.6,1.7,3.2,2.5,4.8c0.3,0.6,0.5,0.6,1.1,0.3
		c3-1.7,6.2-2.6,9.7-2.5c4.4,0.1,6.9,2.6,6.8,6.8c0,0.6-0.2,0.7-0.7,0.7c-2,0-3.9,0.1-5.9,0.2c-2.4,0.1-4.8,0.3-7,1.1
		c-5.1,1.6-8.6,4.6-9.1,10.3c-0.5,5.4,1.9,10.6,7.5,12.8c2.6,1,5.4,1.1,8.1,0.6c2.8-0.5,5.4-1.7,7.5-3.6c0.4-0.4,0.5-0.3,0.7,0.2
		c0.4,0.8,0.8,1.6,1.1,2.4c0.1,0.3,0.3,0.4,0.7,0.4c2.4,0,4.8,0,7.2,0c0.5,0,0.5-0.1,0.4-0.6c-0.3-1.2-0.4-2.4-0.5-3.7
		C385,352.2,385.1,348.5,385.1,345.5z M308.9,341.6c0,1.2,0.1,2.9,0.5,4.6c1.3,6,4.6,10.6,10.3,13.1c3.6,1.6,7.3,1.9,11.1,1.4
		c6.7-0.9,11.7-4.3,14.6-10.5c2.2-4.7,2.4-9.7,1.4-14.7c-0.8-3.9-2.4-7.3-5.4-10c-4.5-4-9.8-5.1-15.6-4.5
		c-5.8,0.6-10.4,3.3-13.6,8.2C309.8,332.7,308.9,336.8,308.9,341.6z M249.5,343.4c3.9,0,7.8,0,11.8,0c0.4,0,0.7,0,0.7-0.5
		c0-2.7,0-5.4-0.6-8c-1.7-7.9-7-13.1-14.5-14c-6.8-0.7-13.1,1.8-16.6,8.1c-3.9,6.9-4.1,14.1-1.1,21.3c2.1,5.1,5.9,8.4,11.3,9.8
		c3.8,1,7.6,1,11.3,0.2c2.9-0.6,5.6-1.7,8-3.3c0.3-0.2,0.5-0.3,0.4-0.8c-0.7-1.8-1.4-3.6-2-5.4c-0.1-0.3-0.3-0.4-0.6-0.2
		c-1,0.5-2,1-3,1.3c-3.5,1.2-7.1,1.7-10.7,0.4c-3.8-1.4-6.1-4.1-6.6-8.2c-0.1-0.6,0.1-0.8,0.7-0.8
		C241.7,343.5,245.6,343.4,249.5,343.4z M206.7,344.6c0,4.9,0,9.8,0,14.8c0,0.6,0.1,0.7,0.7,0.7c2.7,0,5.4,0,8.2,0
		c0.7,0,0.9-0.1,0.9-0.9c0-9.8,0-19.5,0-29.3c0-0.6,0.2-0.8,0.8-0.8c2.1,0,4.1,0,6.2,0c0.5,0,0.8-0.1,1-0.7c0.6-2,1.3-4,2-6
		c0.3-0.7,0.1-0.8-0.6-0.8c-2.9,0-5.7,0-8.6,0c-0.3,0-0.7,0.1-0.7-0.4c0-2.3-0.1-4.6,0.1-6.9c0.2-2.5,1.8-3.9,4.3-3.9
		c1.5,0,3,0.3,4.4,0.8c0.5,0.2,0.6,0.1,0.8-0.4c0.5-1.9,1-3.9,1.6-5.8c0.2-0.7,0-0.9-0.6-1.2c-2.7-1-5.6-1.5-8.5-1.3
		c-6.7,0.5-11.3,5.1-11.7,11.7c-0.2,2.2-0.1,4.5-0.1,6.7c0,0.5-0.1,0.7-0.6,0.6c-1.5,0-2.9,0-4.4,0c-0.4,0-0.6,0.1-0.6,0.5
		c0,2.1,0,4.3,0,6.4c0,0.4,0.1,0.6,0.6,0.6c1.4,0,2.9,0,4.3,0c0.6,0,0.7,0.2,0.7,0.8C206.7,334.8,206.7,339.7,206.7,344.6z
		 M150.2,333.3c0,8.7,0,17.4,0,26.1c0,0.5,0,0.7,0.6,0.7c9.3,0,18.5,0,27.8,0c0.5,0,0.6-0.2,0.6-0.6c0-2.3,0-4.6,0-6.8
		c0-0.7-0.2-0.8-0.9-0.8c-5.7,0-11.4,0-17.1,0c-0.3,0-0.6,0-0.8,0c-0.3,0-0.4-0.1-0.4-0.4c0-0.2,0-0.4,0-0.6c0-14.5,0-28.9,0-43.4
		c0-0.7-0.2-0.9-0.9-0.9c-2.7,0-5.4,0-8.2,0c-0.7,0-0.8,0.2-0.8,0.9C150.2,316,150.2,324.7,150.2,333.3z M406.8,309.9
		c-3.2,0.9-6.3,1.9-9.4,2.8c-0.4,0.1-0.3,0.4-0.3,0.7c0,2.5,0,5,0,7.5c0,0.6-0.1,0.8-0.8,0.8c-1.8,0-3.6,0-5.5,0
		c-0.5,0-0.6,0.1-0.6,0.6c0,2,0,4.1,0,6.1c0,0.5,0.2,0.6,0.7,0.6c1.8,0,3.6,0,5.5,0c0.6,0,0.7,0.2,0.7,0.8c0,3.7,0,7.4,0,11.1
		c0,3.9,0,7.9,0,11.8c0.1,4.5,2.7,7.5,7.1,8c5.4,0.7,10.3-0.8,14.8-3.7c0.4-0.2,0.3-0.5,0.2-0.8c-0.7-1.7-1.5-3.4-2.1-5.1
		c-0.2-0.5-0.4-0.5-0.8-0.2c-1.5,0.9-3.1,1.5-4.9,1.8c-2.9,0.4-4.6-0.9-4.7-3.8c0-0.1,0-0.2,0-0.3c0-6.3,0-12.6,0-18.9
		c0-0.5,0.1-0.6,0.6-0.6c2.6,0,5.2,0,7.8,0c0.5,0,0.8-0.1,1-0.6c0.7-2,1.5-4,2.3-5.9c0.3-0.6,0.2-0.8-0.5-0.8c-3.4,0-6.9,0-10.3,0
		c-0.7,0-0.9-0.2-0.9-0.9C406.8,317.2,406.8,313.6,406.8,309.9z M449.5,330.8c0-2.6,0-5.1,0-7.7c0-0.4-0.2-0.5-0.6-0.7
		c-2.4-0.9-4.9-1.4-7.5-1.6c-3.3-0.2-6.6-0.2-9.8,0.9c-4.3,1.5-7.2,4.2-7.8,8.9c-0.6,5,1.4,8.7,5.9,11.2c1.9,1,3.9,1.8,5.9,2.6
		c1.4,0.6,2.8,1.1,4,2c1.3,0.9,2,2.1,1.8,3.7c-0.2,1.5-1.3,2.3-2.6,2.8c-1.5,0.6-3,0.7-4.5,0.6c-3.3-0.2-6.3-1.2-9.1-3
		c-0.5-0.4-0.7-0.2-0.9,0.3c-0.8,1.9-1.6,3.8-2.5,5.7c-0.3,0.7-0.2,0.9,0.4,1.3c4.3,2.3,9,3.2,13.9,3.1c3.2,0,6.4-0.6,9.3-2
		c7.3-3.6,7.2-13.2,3.1-17.3c-1.9-1.9-4.2-3.1-6.7-4.1c-1.9-0.8-3.8-1.4-5.6-2.3c-0.9-0.5-1.8-1-2.4-1.8c-1-1.3-0.7-3.1,0.7-4.1
		c0.6-0.4,1.3-0.6,2-0.8c2.8-0.5,5.6,0,8.4,0.7C446.4,329.6,447.9,330.2,449.5,330.8z M194.7,340.9c0-6.2,0-12.3,0-18.5
		c0-0.6-0.1-0.8-0.8-0.8c-2.8,0-5.5,0-8.3,0c-0.5,0-0.8,0.1-0.8,0.7c0,12.4,0,24.7,0,37.1c0,0.5,0.1,0.6,0.6,0.6c2.8,0,5.6,0,8.4,0
		c0.6,0,0.8-0.2,0.8-0.8C194.7,353.2,194.7,347,194.7,340.9z M183.8,309.9c0,3.3,2.7,5.9,6,5.9c3.3,0,6-2.7,6-5.9
		c0-3.2-2.7-5.9-6.1-5.9C186.5,303.9,183.8,306.6,183.8,309.9z"/>
	<path class="st3" d="M325.3,282.3c0-1.4,0.2-3.7,0.3-6c0.1-2.1,0-4.2-0.2-6.3c-0.2-2.3-1-4.4-1.9-6.5c-1.5-3.4-3.3-6.7-4.4-10.3
		c-0.9-3-1.5-6-1.7-9.1c-0.2-2.8,0.2-5.6,0.2-8.4c0-5.2-1.1-10.1-2.9-14.9c-1.1-2.9-2.3-5.7-3.7-8.5c-0.2-0.4-0.2-0.5,0.3-0.7
		c2.3-0.5,4.6-0.7,6.9-0.9c1.8-0.1,3.7-0.2,5.5-0.3c4.1-0.1,7.9,0.9,11.7,2.6c1.8,0.8,3.6,1.3,5.5,1.6c2.8,0.4,5.3-0.3,7.8-1.2
		c2.8-1,5.7-1.5,8.6-1.4c2,0.1,3.7,0.9,5.4,1.9c2.7,1.6,5.3,3.4,8.5,4c2.1,0.4,4.2,0.5,6.4,0.1c2.6-0.5,5.1-1.5,7.8-2
		c1.7-0.3,3.3-0.2,5,0.3c2.3,0.7,4.6,1.4,7,1.3c2.2-0.1,4.3-0.6,6.5-1.1c1.9-0.4,3.9-0.8,5.9-0.7c1.9,0.1,3.6,0.7,5.3,1.6
		c1.1,0.6,2.2,1.2,3.5,1.6c0.6,0.1,1.1,0.1,1.7,0.1c0.5-0.1,0.9,0.2,1.1,0.6c1.8,3.3,3.5,6.5,4.7,10.1c1.5,4.3,2.8,8.7,4.6,12.9
		c1.1,2.5,2.5,4.9,4.2,7c2.6,3.2,4.5,6.7,5.4,10.9c0.7,3.1,1.4,6.1,2.4,9.1c1.2,3.4,2.7,6.6,4.6,9.7c1.6,2.6,3.4,5.1,5.2,7.6
		c0.7,1,1.5,1.8,2.3,2.7c0.3,0.4,0.4,0.6-0.1,0.8c-2.4,0.9-4.7,1.6-7.3,1.8c-1.5,0.1-3-0.3-4.5-0.5c-2.3-0.3-4.6-0.5-6.9-0.4
		c-4.1,0-7.9,1.1-11.8,2c-3.6,0.9-7.1,0.6-10.7-0.2c-2.8-0.6-5.7-1.1-8.6-0.4c-1.5,0.3-2.9,0.9-4.3,1.5c-2.1,0.9-4.1,1.9-6.3,2.5
		c-2.1,0.6-4.3,0.6-6.5,0.4c-2.6-0.2-5-1-7.5-1.5c-2.9-0.5-5.6-0.2-8.3,0.7c-2.9,1-5.8,2.2-8.8,2.9c-3.4,0.8-6.7,1.2-10.2,1
		c-1.7-0.1-3.3-0.6-4.9-1.1c-2.7-0.9-5.3-1.8-8.1-2.2c-3.1-0.5-6.3-0.7-9.3,0.4c-0.5,0.2-0.9,0.8-1.4,0.4c-0.4-0.3-0.6-0.9-0.8-1.3
		c-1.1-2.2-1.8-4.5-2.3-6.9C325.4,287.2,325.2,285.2,325.3,282.3z M376.6,291.2c-0.2-1.1-0.6-2.2-0.9-3.4c-1.2-4.8-2.4-9.6-3.5-14.4
		c-0.9-4.1-1.8-8.2-2.6-12.3c-0.1-0.4-0.2-0.6-0.6-0.6c-2.3,0-4.6,0.3-6.8,0.8c-2.9,0.7-5.7,2-8.6,2.9c-3.6,1.1-7.3,1.2-11,1.1
		c-2-0.1-4.1-0.4-6.1-0.6c-1.2-0.1-2.4-0.2-3.6-0.3c-1.9-0.2-3.8-0.2-5.6,0.1c-0.6,0.1-0.7,0.4-0.6,0.9c0.5,2,0.7,4.1,0.7,6.2
		c0.1,1.9,0.1,3.9-0.1,5.8c-0.2,1.9-0.1,3.8-0.2,5.7c-0.1,1.3,0.2,2.6,0.4,3.9c0.5,2.5,1.3,5,2.5,7.3c0.2,0.4,0.5,0.6,1,0.5
		c3.7-1.1,7.4-0.8,11.1,0.1c1.9,0.4,3.7,1,5.6,1.1c4.5,0.4,8.9-0.4,13.1-1.7c2-0.6,4.1-1.3,6.1-1.9c1.7-0.5,3.5-0.9,5.3-1.1
		C373.7,291.3,375.1,291.1,376.6,291.2C376.5,291.3,376.6,291.3,376.6,291.2z M362.6,217.4c0.4,1.4,0.8,2.7,1.1,4
		c1.4,5.7,2.8,11.4,4.2,17.1c0.3,1.1,0.6,2.2,0.9,3.3c0.1,0.2,0.2,0.6-0.3,0.4c-0.7-0.2-1.5-0.3-2.2-0.4c-2.2-0.3-4.3,0-6.5,0.3
		c-3,0.5-5.8,1.7-8.6,2.9c-3.9,1.6-7.9,2-12,1.3c-3.8-0.7-7.5-1.7-11.3-2c-2.3-0.2-4.5,0-6.7,0.4c-0.7,0.1-0.8,0.5-0.7,1.1
		c0.2,1.2,0.4,2.5,0.6,3.7c0.7,4,1.9,7.8,3.9,11.3c0.2,0.3,0.3,0.4,0.6,0.3c1.4-0.2,2.8-0.4,4.3-0.4c1.7,0,3.4,0,5.1,0.1
		c1.6,0.1,3.2,0.4,4.7,0.6c1.3,0.2,2.6,0.4,3.9,0.5c3.8,0.3,7.3-0.7,10.8-1.8c3.6-1.1,7.1-2.4,10.9-2.7c2.4-0.2,4.8-0.2,7.1,0.5
		c0.4,0.1,0.6,0.3,0.6,0.7c0.4,2.1,0.8,4.2,1.3,6.3c1.1,5.4,2.4,10.8,3.7,16.2c0.9,3.5,1.8,7,2.8,10.5c0.1,0.4,0.3,0.6,0.7,0.7
		c1.7,0.5,3.4,1,5.1,1.5c1.6,0.4,3.2,0.7,4.9,0.5c2.8-0.4,5.2-1.7,7.7-2.7c1.6-0.6,3.1-1.3,4.8-1.7c1-0.2,2-0.2,3-0.5
		c-1.4-3.2-2.5-6.4-3.5-9.7c-1.4-4.6-2.7-9.3-3.7-14.1c-0.5-2.3-1-4.7-1.6-7c-0.2-0.6,0.1-0.6,0.5-0.5c0.8,0.1,1.6,0.2,2.3,0.3
		c1.6,0.2,3.2,0.3,4.8,0.5c1.8,0.2,3.5,0.4,5.3,0.1c3.2-0.5,6.2-1.5,9.4-1.9c1.5-0.2,3-0.2,4.5,0c1.2,0.2,2.3,0.6,3.5,1.1
		c2.6,1,5.2,1.4,7.9,0.6c0.5-0.2,0.7-0.4,0.5-0.9c-0.5-1.3-1-2.5-1.8-3.7c-1.6-2.6-3.5-5-4.8-7.8c-0.2-0.3-0.3-0.4-0.7-0.3
		c-2,0.4-4,0.3-5.9-0.8c-2-1.1-4.2-1.6-6.4-1.5c-2.8,0.1-5.4,0.7-8.1,1.3c-2.5,0.5-5.1,0.9-7.7,0.7c-2.2-0.2-4.5-0.5-6.6-1.1
		c-0.7-0.2-1.4-0.4-1.7-1.3c-1.5-4.1-2.6-8.2-3.7-12.4c-1.1-4.3-2.5-8.6-3.9-12.8c-0.1-0.3-0.2-0.4-0.6-0.3
		c-1.3,0.3-2.5,0.7-3.7,1.1c-2.1,0.7-4.2,1.2-6.3,1.4c-3.1,0.3-6.1-0.2-9-1.4C364.8,218.4,363.8,217.9,362.6,217.4z M449.5,286.9
		c-0.6-0.9-1.2-1.7-1.8-2.5c-2.5-3.5-4.6-7.2-6.3-11.2c-1.5-3.7-2.7-7.4-3.5-11.3c-0.1-0.4-0.2-0.6-0.6-0.4
		c-2.8,1.1-5.4,0.6-8.1-0.3c-2-0.7-4-1.2-6.1-1.1c-2.2,0.1-4.4,0.5-6.6,1.1c-1.9,0.5-3.8,1-5.8,1.1c-2.4,0.1-4.8,0-7.2-0.3
		c-1-0.1-1-0.1-0.7,0.9c0.9,3.4,1.7,6.9,2.7,10.3c1.5,5.4,3.3,10.7,5.3,15.9c0.2,0.5,0.4,0.7,0.9,0.7c1.3,0,2.6,0.2,3.9,0.1
		c3.8-0.2,7.6-0.9,11.3-1.9c4.1-1.1,8.3-1.3,12.5-0.5C442.7,288.2,446.1,288,449.5,286.9z M320.1,238.1c0,0.8,0,1.5,0,2.3
		c0,0.4,0,0.6,0.6,0.4c1.2-0.3,2.4-0.6,3.6-0.6c1.5,0,3,0.1,4.5,0.3c3.5,0.4,7,1.5,10.5,1.9c1.5,0.2,3,0.4,4.4,0.2
		c2.5-0.3,4.8-1,7.2-1.7c4.2-1.3,8.2-3.1,12.8-2.9c0.5,0,0.6-0.2,0.5-0.6c-0.4-1.8-0.8-3.6-1.2-5.4c-1.4-5.6-2.7-11.3-4.3-16.8
		c-0.1-0.4-0.3-0.7-0.8-0.9c-1.9-0.9-3.9-0.8-5.9-0.4c-2.2,0.5-4.1,1.5-6.1,2.3c-1.3,0.5-2.6,0.9-4,0.8c-2.4-0.1-4.6-0.7-6.9-1.4
		c-3.1-0.9-6.3-1.7-9.6-1.8c-2.3-0.1-4.6,0.1-6.8,0.2c-1.1,0.1-2.1,0.1-3.2,0.4c-0.3,0.1-0.3,0.1-0.2,0.4c0.3,0.7,0.6,1.5,1,2.2
		c1.9,4.4,3,9,3.7,13.7C319.9,233.3,320,235.7,320.1,238.1z M389,218c1.3,3.4,2.3,6.7,3.2,10.1c1,4,2.1,8,3.2,11.9
		c0.2,0.8,0.4,1.6,1.6,1.7c1.1,0.1,2.2,0.4,3.2,0.6c1.8,0.3,3.5,0.4,5.3,0.1c3.4-0.5,6.6-1.6,10-1.9c2.6-0.2,5,0.2,7.2,1.5
		c1.7,1,3.5,1.3,5.4,1.1c0.6-0.1,0.8-0.3,0.6-0.9c-1.2-3.2-2.3-6.4-3.4-9.6c-1.5-4.1-3.1-8.2-5.2-12c-0.2-0.3-0.4-0.5-0.8-0.4
		c-0.6,0-1.3,0.1-1.9-0.1c-1.7-0.3-3.1-1.3-4.6-2c-2.2-1.1-4.6-1.4-7-1c-2.9,0.4-5.6,1.6-8.6,1.8c-1.8,0.1-3.6,0.2-5.4-0.2
		C391,218.5,390,218.2,389,218z"/>
	<path class="st3" d="M277.8,321.9c2.4-0.7,4.8-1.1,7.3-1.1c5.1,0,9.7,1.5,13.4,5.1c2.9,2.8,4.3,6.3,4.9,10.2
		c0.6,4.7,0.1,9.3-2.2,13.5c-2.7,5.1-6.9,8.3-12.3,10c-6.5,2-13,1.7-19.4-0.7c-1.2-0.4-1.5-1-1.5-2.3c0-17.7,0-35.4,0-53.1
		c0-0.8,0.2-1,1-1c2.6,0.1,5.3,0,7.9,0c0.7,0,0.9,0.1,0.9,0.9c0,5.9,0,11.7,0,17.6C277.8,321.3,277.8,321.6,277.8,321.9z
		 M277.8,341.2c0,3.5,0,6.9,0,10.4c0,0.3-0.1,0.6,0.4,0.8c3.9,1,7.7,1,11-1.7c3.4-2.8,4.7-6.5,4.6-10.8c-0.1-3.3-1.2-6.2-3.8-8.4
		c-3.3-2.9-8.1-3-11.9-1.3c-0.4,0.2-0.3,0.5-0.3,0.8C277.8,334.3,277.8,337.8,277.8,341.2z"/>
	<path class="st3" d="M385.1,345.5c0,3.1-0.1,6.7,0.1,10.4c0.1,1.2,0.2,2.5,0.5,3.7c0.1,0.4,0,0.6-0.4,0.6c-2.4,0-4.8,0-7.2,0
		c-0.4,0-0.5-0.1-0.7-0.4c-0.4-0.8-0.8-1.6-1.1-2.4c-0.2-0.4-0.3-0.5-0.7-0.2c-2.2,1.9-4.7,3.1-7.5,3.6c-2.7,0.5-5.5,0.4-8.1-0.6
		c-5.6-2.1-8.1-7.3-7.5-12.8c0.5-5.6,4.1-8.7,9.1-10.3c2.3-0.7,4.7-1,7-1.1c2-0.1,3.9-0.1,5.9-0.2c0.5,0,0.7-0.1,0.7-0.7
		c0-4.2-2.4-6.6-6.8-6.8c-3.5-0.1-6.7,0.8-9.7,2.5c-0.6,0.3-0.8,0.3-1.1-0.3c-0.8-1.6-1.6-3.2-2.5-4.8c-0.3-0.5-0.2-0.7,0.3-1
		c3.7-2.3,7.7-3.5,12-3.8c2.8-0.1,5.7-0.1,8.5,0.6c5.3,1.3,8.6,5.1,9.1,10.6c0.1,1.1,0.1,2.3,0.1,3.4
		C385.1,338.6,385.1,341.7,385.1,345.5z M375.2,346.7c0-1.2,0-2.3,0-3.5c0-0.5-0.1-0.8-0.7-0.7c-1.9,0.1-3.9,0.1-5.8,0.2
		c-1.3,0.1-2.5,0.3-3.7,0.8c-1.2,0.5-2.2,1.3-2.6,2.5c-1.1,2.8,0.4,6,3.3,6.8c3.3,0.9,6.3,0.3,9.1-1.7c0.4-0.3,0.5-0.6,0.5-1
		C375.2,349,375.2,347.8,375.2,346.7z"/>
	<path class="st3" d="M308.9,341.6c0-4.9,0.9-8.9,3.3-12.5c3.2-4.9,7.8-7.6,13.6-8.2c5.8-0.6,11.1,0.6,15.6,4.5
		c3,2.7,4.7,6.1,5.4,10c1,5,0.8,10-1.4,14.7c-2.9,6.2-7.8,9.6-14.6,10.5c-3.8,0.5-7.6,0.1-11.1-1.4c-5.7-2.5-9-7.1-10.3-13.1
		C309,344.5,308.8,342.8,308.9,341.6z M337.4,340.8c-0.1-2.6-0.4-5.3-1.7-7.7c-1.8-3.3-4.6-4.8-8.3-4.6c-3.5,0.2-5.8,2-7.2,5.1
		c-0.8,1.8-1.2,3.6-1.3,5.6c-0.2,3.3,0.1,6.6,1.7,9.5c1.8,3.3,4.7,4.8,8.4,4.5c3.6-0.3,5.9-2.3,7.2-5.5
		C337.1,345.6,337.3,343.3,337.4,340.8z"/>
	<path class="st4" d="M249.5,343.4c-3.9,0-7.7,0-11.6,0c-0.6,0-0.8,0.2-0.7,0.8c0.5,4.1,2.8,6.8,6.6,8.2c3.6,1.3,7.2,0.8,10.7-0.4
		c1-0.4,2-0.8,3-1.3c0.3-0.2,0.5-0.1,0.6,0.2c0.7,1.8,1.3,3.6,2,5.4c0.2,0.5-0.1,0.6-0.4,0.8c-2.5,1.6-5.2,2.7-8,3.3
		c-3.8,0.8-7.6,0.8-11.3-0.2c-5.3-1.4-9.2-4.7-11.3-9.8c-2.9-7.2-2.7-14.5,1.1-21.3c3.6-6.3,9.9-8.9,16.6-8.1
		c7.5,0.8,12.8,6.1,14.5,14c0.6,2.7,0.6,5.3,0.6,8c0,0.6-0.3,0.5-0.7,0.5C257.3,343.4,253.4,343.4,249.5,343.4z M244.4,336.5
		c2.3,0,4.5,0,6.8,0c0.6,0,0.7-0.2,0.6-0.7c-0.1-0.8-0.2-1.6-0.5-2.3c-1.3-4.2-5-6.3-8.9-5.1c-3.5,1-5.4,4.5-5.5,7.7
		c0,0.5,0.3,0.4,0.6,0.4C239.8,336.5,242.1,336.5,244.4,336.5z"/>
	<path class="st4" d="M206.7,344.6c0-4.9,0-9.8,0-14.7c0-0.6-0.1-0.8-0.7-0.8c-1.4,0.1-2.9,0-4.3,0c-0.4,0-0.6-0.1-0.6-0.6
		c0-2.1,0-4.3,0-6.4c0-0.5,0.2-0.5,0.6-0.5c1.5,0,2.9,0,4.4,0c0.5,0,0.6-0.2,0.6-0.6c0-2.2-0.1-4.5,0.1-6.7
		c0.5-6.7,5.1-11.2,11.7-11.7c3-0.2,5.8,0.2,8.5,1.3c0.6,0.2,0.8,0.5,0.6,1.2c-0.6,1.9-1.1,3.8-1.6,5.8c-0.1,0.5-0.3,0.6-0.8,0.4
		c-1.4-0.6-2.9-0.9-4.4-0.8c-2.5,0-4.1,1.4-4.3,3.9c-0.2,2.3,0,4.6-0.1,6.9c0,0.6,0.4,0.4,0.7,0.4c2.9,0,5.7,0,8.6,0
		c0.7,0,0.9,0.1,0.6,0.8c-0.7,2-1.4,4-2,6c-0.2,0.6-0.5,0.7-1,0.7c-2.1,0-4.1,0-6.2,0c-0.6,0-0.8,0.1-0.8,0.8c0,9.8,0,19.5,0,29.3
		c0,0.8-0.2,0.9-0.9,0.9c-2.7,0-5.4,0-8.2,0c-0.6,0-0.7-0.2-0.7-0.7C206.7,354.4,206.7,349.5,206.7,344.6z"/>
	<path class="st3" d="M150.2,333.3c0-8.6,0-17.3,0-25.9c0-0.6,0.1-0.9,0.8-0.9c2.7,0.1,5.4,0,8.2,0c0.7,0,0.9,0.1,0.9,0.9
		c0,14.5,0,28.9,0,43.4c0,0.2,0,0.4,0,0.6c0,0.3,0.1,0.4,0.4,0.4c0.3,0,0.6,0,0.8,0c5.7,0,11.4,0,17.1,0c0.6,0,0.9,0.1,0.9,0.8
		c-0.1,2.3,0,4.6,0,6.8c0,0.5-0.1,0.7-0.6,0.6c-9.3,0-18.5,0-27.8,0c-0.6,0-0.6-0.2-0.6-0.7C150.2,350.7,150.2,342,150.2,333.3z"/>
	<path class="st3" d="M406.8,309.9c0,3.7,0,7.3,0,10.9c0,0.7,0.1,0.9,0.9,0.9c3.4,0,6.9,0,10.3,0c0.7,0,0.8,0.2,0.5,0.8
		c-0.8,2-1.6,3.9-2.3,5.9c-0.2,0.5-0.4,0.6-1,0.6c-2.6,0-5.2,0-7.8,0c-0.5,0-0.6,0.1-0.6,0.6c0,6.3,0,12.6,0,18.9c0,0.1,0,0.2,0,0.3
		c0.1,2.9,1.8,4.3,4.7,3.8c1.7-0.3,3.4-0.8,4.9-1.8c0.4-0.3,0.6-0.2,0.8,0.2c0.7,1.7,1.4,3.4,2.1,5.1c0.1,0.3,0.2,0.6-0.2,0.8
		c-4.5,2.9-9.4,4.4-14.8,3.7c-4.4-0.6-7.1-3.5-7.1-8c-0.1-3.9,0-7.9,0-11.9c0-3.7,0-7.4,0-11.1c0-0.6-0.1-0.8-0.7-0.8
		c-1.8,0-3.6,0-5.5,0c-0.5,0-0.7-0.1-0.7-0.6c0-2,0-4.1,0-6.1c0-0.5,0.1-0.6,0.6-0.6c1.8,0,3.6,0,5.5,0c0.7,0,0.8-0.2,0.8-0.8
		c0-2.5,0-5,0-7.5c0-0.3-0.1-0.6,0.3-0.7C400.5,311.8,403.6,310.9,406.8,309.9z"/>
	<path class="st4" d="M449.5,330.8c-1.6-0.6-3.1-1.2-4.7-1.6c-2.7-0.7-5.5-1.1-8.4-0.7c-0.7,0.1-1.4,0.4-2,0.8
		c-1.4,0.9-1.7,2.7-0.7,4.1c0.6,0.9,1.5,1.4,2.4,1.8c1.8,0.9,3.7,1.5,5.6,2.3c2.4,1,4.8,2.2,6.7,4.1c4,4.1,4.2,13.6-3.1,17.3
		c-2.9,1.5-6.1,2-9.3,2c-4.9,0.1-9.5-0.8-13.9-3.1c-0.6-0.3-0.8-0.6-0.4-1.3c0.9-1.9,1.7-3.8,2.5-5.7c0.2-0.5,0.3-0.7,0.9-0.3
		c2.7,1.8,5.8,2.8,9.1,3c1.5,0.1,3.1,0,4.5-0.6c1.3-0.5,2.4-1.3,2.6-2.8c0.3-1.6-0.5-2.8-1.8-3.7c-1.2-0.9-2.6-1.4-4-2
		c-2-0.8-4-1.5-5.9-2.6c-4.5-2.4-6.5-6.1-5.9-11.2c0.6-4.7,3.5-7.4,7.8-8.9c3.2-1.1,6.5-1.1,9.8-0.9c2.6,0.2,5.1,0.7,7.5,1.6
		c0.3,0.1,0.6,0.2,0.6,0.7C449.5,325.7,449.5,328.2,449.5,330.8z"/>
	<path class="st4" d="M194.7,340.9c0,6.1,0,12.3,0,18.4c0,0.6-0.2,0.8-0.8,0.8c-2.8,0-5.6,0-8.4,0c-0.5,0-0.6-0.1-0.6-0.6
		c0-12.4,0-24.7,0-37.1c0-0.6,0.2-0.7,0.8-0.7c2.8,0,5.5,0,8.3,0c0.6,0,0.8,0.2,0.8,0.8C194.7,328.6,194.7,334.8,194.7,340.9z"/>
	<path class="st4" d="M183.8,309.9c0-3.2,2.7-5.9,6-5.9c3.4,0,6.1,2.6,6.1,5.9c0,3.2-2.7,5.9-6,5.9
		C186.5,315.8,183.8,313.1,183.8,309.9z"/>
	<path class="st5" d="M362.6,217.4c1.2,0.5,2.2,1.1,3.3,1.5c2.9,1.2,5.9,1.7,9,1.4c2.2-0.2,4.3-0.7,6.3-1.4c1.2-0.4,2.4-0.8,3.7-1.1
		c0.4-0.1,0.5,0.1,0.6,0.3c1.4,4.2,2.8,8.5,3.9,12.8c1.1,4.2,2.2,8.3,3.7,12.4c0.3,0.9,1,1.1,1.7,1.3c2.2,0.6,4.4,0.9,6.6,1.1
		c2.6,0.2,5.1-0.1,7.7-0.7c2.7-0.6,5.4-1.3,8.1-1.3c2.3,0,4.5,0.4,6.4,1.5c1.9,1.1,3.9,1.1,5.9,0.8c0.4-0.1,0.5,0,0.7,0.3
		c1.3,2.8,3.2,5.2,4.8,7.8c0.7,1.2,1.3,2.4,1.8,3.7c0.2,0.6,0,0.8-0.5,0.9c-2.7,0.8-5.3,0.4-7.9-0.6c-1.1-0.4-2.2-0.9-3.5-1.1
		c-1.5-0.3-3-0.2-4.5,0c-3.2,0.4-6.3,1.3-9.4,1.9c-1.8,0.3-3.5,0.2-5.3-0.1c-1.6-0.2-3.2-0.4-4.8-0.5c-0.8-0.1-1.6-0.2-2.3-0.3
		c-0.4,0-0.7-0.1-0.5,0.5c0.6,2.3,1.1,4.7,1.6,7c1,4.7,2.3,9.4,3.7,14.1c1,3.3,2.1,6.5,3.5,9.7c-1,0.3-2,0.3-3,0.5
		c-1.7,0.4-3.2,1-4.8,1.7c-2.5,1-5,2.3-7.7,2.7c-1.7,0.2-3.3,0-4.9-0.5c-1.7-0.5-3.4-1-5.1-1.5c-0.4-0.1-0.5-0.4-0.7-0.7
		c-1-3.5-1.9-7-2.8-10.5c-1.3-5.4-2.5-10.8-3.7-16.2c-0.4-2.1-0.8-4.2-1.3-6.3c-0.1-0.4-0.2-0.6-0.6-0.7c-2.3-0.7-4.7-0.7-7.1-0.5
		c-3.8,0.4-7.3,1.7-10.9,2.7c-3.5,1.1-7.1,2.1-10.8,1.8c-1.3-0.1-2.6-0.3-3.9-0.5c-1.6-0.2-3.2-0.5-4.7-0.6
		c-1.7-0.2-3.4-0.1-5.1-0.1c-1.4,0-2.8,0.2-4.3,0.4c-0.4,0-0.5,0-0.6-0.3c-2.1-3.5-3.2-7.3-3.9-11.3c-0.2-1.2-0.4-2.5-0.6-3.7
		c-0.1-0.5,0-0.9,0.7-1.1c2.2-0.4,4.4-0.6,6.7-0.4c3.8,0.3,7.6,1.4,11.3,2c4.1,0.7,8.1,0.3,12-1.3c2.8-1.2,5.6-2.4,8.6-2.9
		c2.1-0.3,4.3-0.5,6.5-0.3c0.8,0.1,1.5,0.2,2.2,0.4c0.5,0.1,0.3-0.2,0.3-0.4c-0.3-1.1-0.6-2.2-0.9-3.3c-1.4-5.7-2.8-11.4-4.2-17.1
		C363.4,220.1,363,218.8,362.6,217.4z M376.9,227.1c0.5-0.1,0.9,0.4,1.5,0.4c-0.2-0.9-0.4-1.7-0.8-2.5c-0.1,0.1-0.2,0.1-0.2,0.1
		c-0.3,0.2-0.6,0.5-0.9,0.4c-0.3-0.2-0.1-0.6,0-0.9c0.1-0.4-0.1-0.4-0.4-0.4c-0.7,0.1-1.4,0.1-2.1,0.2c0.1,0.5,0.6,0.7,0.7,1.1
		c-0.5,0.2-0.8-0.3-1.3-0.2c0.3,0.9,0.5,1.7,0.8,2.5c0.4-0.3,0.8-0.6,1.3-0.7c-0.1,0.4-0.1,0.7-0.2,1.1c-0.1,0.3,0,0.5,0.3,0.4
		c0.7-0.2,1.5,0,2.3-0.2C377.6,227.9,377.1,227.6,376.9,227.1L376.9,227.1z M376.7,259.1c-0.1,1.5,0.7,2.3,2,2.8
		c1.7,0.7,3.5,1.3,5.3,1.8c0.4,0.1,0.6,0.2,0.6,0.6c0.9,4.2,1.9,8.3,3.2,12.4c0.1,0.4,0.4,1-0.1,1.4c-0.5,0.4-1,0.1-1.5,0
		c-0.2-0.1-0.3-0.2-0.5-0.2c-1.2-0.6-2.1-1.5-3.1-2.4c-0.6-0.6-1.1-1.2-0.9-2.2c0.1-0.3,0-0.6-0.3-0.7c-1.3-0.5-2.5-1-3.9-1.5
		c0.3,1.3,0.7,2.5,0.9,3.7c0.1,0.7,0.4,1,1.1,0.9c0.4,0,0.7-0.1,1,0.4c1.9,2.7,4.6,4.3,7.6,5.6c1.6,0.7,2.8,0.6,4.1-0.7
		c1.9-1.9,3.8-3.6,4.9-6.1c0.3-0.6,0.6-1.1,1.2-1.4c0.3-0.1,0.6-0.3,0.5-0.6c-0.2-1.3-0.4-2.7-0.7-4.1c-0.9,0.9-1.7,1.8-2.5,2.6
		c-0.5,0.4-0.5,0.8-0.2,1.4c0.2,0.4,0.4,0.8,0.1,1.3c-0.9,1.4-2,2.6-3.4,3.5c-0.7,0.4-1.1,0.3-1.4-0.5c-0.3-0.9-0.6-1.8-0.8-2.6
		c-0.8-3.4-1.7-6.8-2.5-10.1c-0.1-0.4-0.1-0.7,0.4-0.8c2.1-0.7,4-2,6-3.1c0.4-0.2,0.4-0.4,0.4-0.8c-0.2-1.3-0.3-1.3-1.5-0.9
		c-0.2,0.1-0.3,0.1-0.5,0.2c-1.6,0.6-3.2,1.3-4.8,1.7c-0.2,0.1-0.4,0.2-0.7,0c-0.3-0.3-0.5-2.1-0.2-2.4c0.7-1,0.7-2,0.1-3
		c-0.6-1-1.9-1.7-3-1.5c-1.2,0.2-2,0.9-2.3,2c-0.3,1.1,0.2,2.3,1.3,3c0.4,0.3,1.2,2,0.9,2.2c-0.5,0.4-1.1-0.1-1.6,0
		c-0.1,0-0.1,0-0.2-0.1C380.2,260.2,378.4,259.7,376.7,259.1z M379.5,247c3.2-0.2,6.4-0.8,9.6-1.5c0.5-0.1,0.6-0.4,0.4-0.8
		c-0.4-1-0.7-1.9-1-2.9c-0.2-0.5-0.1-0.9,0.1-1.4c0.9-1.6,1.1-3.4,0.7-5.2c-0.6-2.8-2.9-4.4-5.7-3.9c-2,0.4-3.6,1.5-4.9,3
		c-0.4,0.5-0.6,0.6-1.2,0.1c-1.7-1.5-3.5-2.6-5.7-3.2c-2.8-0.6-4.3,0.9-3.7,3.6c0.4,1.8,1.4,3.4,2.5,4.9c0.6,0.9,1.4,1.6,1.7,2.7
		c0.2,0.8,0.6,1.6,0.8,2.5c0.2,0.7,0.6,1,1.2,1.2C375.9,246.7,377.6,246.9,379.5,247z M378.5,249.3c3.4,0,5.9-0.4,8.3-0.9
		c1-0.2,1.9-0.4,2.8-0.7c0.4-0.1,0.8-0.3,0.7-0.8c-0.1-0.5-0.5-0.6-1-0.5c-0.1,0-0.3,0-0.4,0.1c-1.8,0.4-3.7,0.8-5.5,1.1
		c-3.3,0.5-6.6,0.8-9.8-0.5c-0.1,0-0.2,0-0.3-0.1c-0.2-0.1-0.4,0-0.5,0.2c-0.1,0.2-0.1,0.4,0,0.6c0.2,0.3,0.6,0.5,0.9,0.7
		C375.6,249.1,377.5,249.3,378.5,249.3z M377.5,232.8c1,0,1.7-0.7,1.7-1.6c0-1-1.2-2-2.3-2c-1,0-1.7,0.7-1.7,1.6
		C375.2,231.9,376.3,232.8,377.5,232.8z"/>
	<path class="st6" d="M376.5,291.3c-1.4-0.2-2.8,0-4.3,0.1c-1.8,0.2-3.5,0.6-5.3,1.1c-2.1,0.6-4.1,1.3-6.1,1.9
		c-4.3,1.3-8.6,2.1-13.1,1.7c-1.9-0.2-3.8-0.7-5.6-1.1c-3.7-0.8-7.4-1.2-11.1-0.1c-0.5,0.1-0.7-0.1-1-0.5c-1.2-2.3-1.9-4.8-2.5-7.3
		c-0.3-1.3-0.5-2.6-0.4-3.9c0.1-1.9,0-3.8,0.2-5.7c0.2-1.9,0.2-3.9,0.1-5.8c-0.1-2.1-0.2-4.2-0.7-6.2c-0.1-0.4-0.1-0.8,0.6-0.9
		c1.9-0.3,3.7-0.3,5.6-0.1c1.2,0.1,2.4,0.2,3.6,0.3c2,0.2,4.1,0.5,6.1,0.6c3.7,0.2,7.4,0.1,11-1.1c2.9-0.9,5.7-2.1,8.6-2.9
		c2.2-0.6,4.5-0.9,6.8-0.8c0.4,0,0.5,0.2,0.6,0.6c0.8,4.1,1.7,8.2,2.6,12.3c1.1,4.8,2.3,9.6,3.5,14.4
		C376,289,376.4,290.1,376.5,291.3C376.6,291.2,376.5,291.3,376.5,291.3z M342.9,269.3c0,0.2,0,0.3,0,0.4c1.2,4.5,1.5,9.2,2,13.8
		c0.2,2.5,0.6,4.9,1.4,7.3c0.1,0.4,0.3,0.7,0.8,0.7c2.3,0.3,4.6,0.3,6.9,0c2.6-0.3,5.2-1,7.6-2c0.3-0.1,0.6-0.2,0.5-0.6
		c-0.4-1.4-0.6-2.9-0.8-4.3c-0.3,0.1-0.5,0.2-0.8,0.2c-2.8,0.8-5.5,1.5-8.4,1.7c-0.6,0.1-0.8-0.1-1-0.7c-0.6-3.1-0.8-6.3-1.2-9.4
		c-0.3-2.2-0.6-4.3-1.2-6.4c-0.1-0.3-0.1-0.6-0.5-0.5C346.5,269.5,344.7,269.4,342.9,269.3z"/>
	<path class="st6" d="M449.5,286.9c-3.4,1.1-6.8,1.3-10.2,0.6c-4.2-0.8-8.3-0.6-12.5,0.5c-3.7,1-7.4,1.7-11.3,1.9
		c-1.3,0.1-2.6-0.1-3.9-0.1c-0.5,0-0.7-0.2-0.9-0.7c-2-5.2-3.8-10.5-5.3-15.9c-1-3.4-1.8-6.9-2.7-10.3c-0.3-1-0.3-1,0.7-0.9
		c2.4,0.3,4.8,0.4,7.2,0.3c2-0.1,3.9-0.6,5.8-1.1c2.2-0.5,4.4-1,6.6-1.1c2.1-0.1,4.1,0.5,6.1,1.1c2.7,0.9,5.4,1.5,8.1,0.3
		c0.4-0.2,0.5,0.1,0.6,0.4c0.8,3.9,2,7.6,3.5,11.3c1.6,4,3.8,7.7,6.3,11.2C448.3,285.2,448.8,286,449.5,286.9z M422.4,263.8
		c-1.3,0.1-2.7,0.4-4.1,0.7c-0.5,0.1-0.6,0.3-0.5,0.8c1,3.9,2.1,7.7,3.5,11.4c0.9,2.3,1.8,4.6,3,6.8c0.2,0.3,0.2,0.5,0.7,0.4
		c1.6-0.4,3.2-0.7,4.8-0.9c0.4-0.1,0.4-0.2,0.2-0.5c-1.9-3.2-3.2-6.7-4.4-10.2c-0.9-2.6-1.8-5.3-2.5-8
		C423,264.2,423.1,263.7,422.4,263.8z"/>
	<path class="st6" d="M320.1,238.1c-0.1-2.4-0.2-4.8-0.5-7.2c-0.6-4.7-1.7-9.3-3.7-13.7c-0.3-0.7-0.6-1.5-1-2.2
		c-0.1-0.3-0.1-0.3,0.2-0.4c1-0.3,2.1-0.3,3.2-0.4c2.3-0.2,4.5-0.3,6.8-0.2c3.3,0.1,6.5,0.9,9.6,1.8c2.3,0.7,4.5,1.3,6.9,1.4
		c1.4,0.1,2.7-0.3,4-0.8c2-0.8,4-1.8,6.1-2.3c2-0.4,4-0.5,5.9,0.4c0.4,0.2,0.6,0.4,0.8,0.9c1.6,5.6,2.9,11.2,4.3,16.8
		c0.4,1.8,0.8,3.6,1.2,5.4c0.1,0.4,0,0.7-0.5,0.6c-4.5-0.3-8.6,1.5-12.8,2.9c-2.4,0.8-4.7,1.4-7.2,1.7c-1.4,0.2-2.9,0-4.4-0.2
		c-3.5-0.5-6.9-1.5-10.5-1.9c-1.5-0.2-3-0.3-4.5-0.3c-1.2,0-2.4,0.2-3.6,0.6c-0.5,0.2-0.6,0-0.6-0.4
		C320.1,239.7,320.1,238.9,320.1,238.1z M338.7,230.7c0.8,0.4,1.6,0.2,2.2,1c1.5,2.3,3.2,4.4,4.7,6.7c0.2,0.4,0.4,0.4,0.8,0.3
		c1.5-0.4,3-0.9,4.5-1.4c0.5-0.2,0.6-0.3,0.2-0.8c-1.7-1.8-3.3-3.5-5-5.3c-0.3-0.3-0.4-0.4,0.1-0.8c1.1-0.8,1.8-2,1.8-3.4
		c-0.1-2.8-1.7-4.7-4.3-5.4c-2.7-0.7-5.6-1.1-8.3-1.9c-1.5-0.4-2.9-0.8-4.5-1.2c0.2,1.1,0.4,2.2,0.6,3.2c1.1,4.7,2,9.4,2.5,14.3
		c0.2,1.8,0.2,1.8,2,2.2c1.2,0.3,2.3,0.6,3.5,0.7c0.2,0,0.7,0.2,0.6-0.4C339.8,236,339.4,233.4,338.7,230.7z"/>
	<path class="st6" d="M389,218c1,0.2,2,0.5,3,0.7c1.8,0.4,3.6,0.3,5.4,0.2c2.9-0.2,5.7-1.3,8.6-1.8c2.5-0.4,4.8,0,7,1
		c1.5,0.7,2.9,1.6,4.6,2c0.6,0.1,1.3,0.1,1.9,0.1c0.4,0,0.6,0.1,0.8,0.4c2.1,3.8,3.8,7.9,5.2,12c1.1,3.2,2.2,6.4,3.4,9.6
		c0.2,0.7,0.1,0.9-0.6,0.9c-1.9,0.2-3.7-0.1-5.4-1.1c-2.2-1.3-4.6-1.7-7.2-1.5c-3.4,0.3-6.7,1.3-10,1.9c-1.8,0.3-3.5,0.2-5.3-0.1
		c-1.1-0.2-2.2-0.5-3.2-0.6c-1.2-0.1-1.4-0.9-1.6-1.7c-1.1-4-2.2-7.9-3.2-11.9C391.3,224.7,390.3,221.4,389,218z M410.6,227.9
		c-0.3-0.3-0.6-0.5-0.9-0.8c-2-2-4.1-3.9-6.4-5.5c-0.3-0.2-0.6-0.5-1-0.3c-1.1,0.4-2.2,0.6-3.4,0.8c0.3,0.6,0.5,1.3,0.8,1.9
		c1.7,4.6,3,9.3,4.2,14c0.2,0.7,0.5,0.9,1.2,0.8c1.1-0.2,2.2-0.3,3.3-0.5c0.6-0.1,0.6-0.3,0.5-0.8c-0.7-2.4-1.4-4.9-2.1-7.3
		c0,0,0.1-0.1,0.1-0.1c0.4,0.2,0.8,0.5,1.1,0.8c2.2,1.8,4,3.9,5.8,6c0.3,0.3,0.6,0.5,1,0.5c1.1,0,2.2,0,3.2,0c0.6,0,0.7-0.1,0.5-0.7
		c-1.5-5-3.4-9.7-5.8-14.4c-0.7-1.4-1.8-2-3.3-2.1c-0.5,0-0.9,0-1.4,0c-0.9,0-0.9,0-0.5,0.9C408.7,223.3,409.9,225.4,410.6,227.9
		C410.7,227.8,410.7,227.9,410.6,227.9z"/>
	<path class="st4" d="M376.5,291.3C376.5,291.3,376.6,291.2,376.5,291.3C376.6,291.3,376.5,291.3,376.5,291.3z"/>
	<path class="st6" d="M277.8,341.2c0-3.5,0-6.9,0-10.4c0-0.3-0.1-0.6,0.3-0.8c3.8-1.7,8.6-1.6,11.9,1.3c2.5,2.2,3.7,5.1,3.8,8.4
		c0.1,4.3-1.2,8.1-4.6,10.8c-3.3,2.7-7.1,2.7-11,1.7c-0.5-0.1-0.4-0.4-0.4-0.8C277.8,348.1,277.8,344.7,277.8,341.2z"/>
	<path class="st6" d="M375.2,346.7c0,1.2,0,2.3,0,3.5c0,0.4-0.1,0.7-0.5,1c-2.8,2-5.8,2.6-9.1,1.7c-2.9-0.8-4.4-4-3.3-6.8
		c0.5-1.3,1.4-2,2.6-2.5c1.2-0.5,2.4-0.7,3.7-0.8c1.9-0.1,3.9-0.1,5.8-0.2c0.6,0,0.7,0.2,0.7,0.7
		C375.2,344.4,375.2,345.5,375.2,346.7z"/>
	<path class="st6" d="M337.4,340.8c0,2.4-0.3,4.8-1.2,7c-1.3,3.2-3.6,5.2-7.2,5.5c-3.7,0.3-6.6-1.3-8.4-4.5c-1.6-3-1.9-6.2-1.7-9.5
		c0.1-1.9,0.5-3.8,1.3-5.6c1.4-3.1,3.8-4.9,7.2-5.1c3.7-0.2,6.5,1.3,8.3,4.6C337,335.5,337.3,338.2,337.4,340.8z"/>
	<path class="st6" d="M244.4,336.5c-2.3,0-4.6,0-6.9,0c-0.3,0-0.6,0.1-0.6-0.4c0.2-3.2,2-6.7,5.5-7.7c4-1.2,7.6,1,8.9,5.1
		c0.2,0.8,0.4,1.5,0.5,2.3c0.1,0.5,0,0.7-0.6,0.7C248.9,336.5,246.7,336.5,244.4,336.5z"/>
	<path class="st7" d="M376.7,259.1c1.8,0.5,3.5,1.1,5.3,1.4c0.1,0,0.1,0.1,0.2,0.1c0.5,0,1.1,0.4,1.6,0c0.3-0.2-0.5-1.9-0.9-2.2
		c-1.1-0.8-1.6-1.9-1.3-3c0.3-1.1,1-1.8,2.3-2c1.1-0.2,2.4,0.5,3,1.5c0.6,1,0.6,2-0.1,3c-0.2,0.3-0.1,2.1,0.2,2.4
		c0.2,0.2,0.4,0.1,0.7,0c1.7-0.4,3.2-1.1,4.8-1.7c0.2-0.1,0.3-0.1,0.5-0.2c1.3-0.5,1.3-0.5,1.5,0.9c0.1,0.4,0,0.6-0.4,0.8
		c-2,1.1-3.9,2.4-6,3.1c-0.5,0.2-0.4,0.5-0.4,0.8c0.8,3.4,1.7,6.8,2.5,10.1c0.2,0.9,0.5,1.8,0.8,2.6c0.3,0.8,0.7,1,1.4,0.5
		c1.4-0.9,2.5-2.1,3.4-3.5c0.3-0.5,0.2-0.9-0.1-1.3c-0.3-0.5-0.2-0.9,0.2-1.4c0.8-0.8,1.6-1.7,2.5-2.6c0.2,1.4,0.5,2.8,0.7,4.1
		c0,0.3-0.3,0.5-0.5,0.6c-0.6,0.3-1,0.7-1.2,1.4c-1.1,2.5-3.1,4.3-4.9,6.1c-1.3,1.3-2.5,1.4-4.1,0.7c-3-1.3-5.7-2.9-7.6-5.6
		c-0.3-0.4-0.6-0.4-1-0.4c-0.7,0.1-1-0.2-1.1-0.9c-0.3-1.2-0.6-2.4-0.9-3.7c1.4,0.5,2.6,1,3.9,1.5c0.3,0.1,0.4,0.4,0.3,0.7
		c-0.2,1,0.3,1.6,0.9,2.2c0.9,0.9,1.9,1.8,3.1,2.4c0.2,0.1,0.3,0.2,0.5,0.2c0.5,0.2,1,0.4,1.5,0c0.5-0.4,0.2-0.9,0.1-1.4
		c-1.2-4.1-2.3-8.2-3.2-12.4c-0.1-0.4-0.3-0.5-0.6-0.6c-1.8-0.4-3.6-1.1-5.3-1.8C377.4,261.4,376.6,260.7,376.7,259.1z M384.2,255.1
		c-0.6,0-1.1,0.5-1.1,1c0,0.6,0.7,1.3,1.3,1.3c0.6,0,1.1-0.5,1.1-1.1C385.5,255.6,385,255.1,384.2,255.1z"/>
	<path class="st7" d="M379.5,247c-1.9-0.1-3.6-0.3-5.3-0.8c-0.6-0.2-1-0.5-1.2-1.2c-0.2-0.8-0.5-1.7-0.8-2.5
		c-0.3-1.1-1.1-1.8-1.7-2.7c-1.1-1.5-2.1-3.1-2.5-4.9c-0.7-2.8,0.9-4.3,3.7-3.6c2.2,0.5,4.1,1.7,5.7,3.2c0.6,0.5,0.8,0.4,1.2-0.1
		c1.3-1.5,2.9-2.6,4.9-3c2.8-0.5,5.2,1,5.7,3.9c0.4,1.8,0.2,3.6-0.7,5.2c-0.2,0.5-0.3,0.9-0.1,1.4c0.3,1,0.6,1.9,1,2.9
		c0.2,0.5,0.1,0.7-0.4,0.8C385.8,246.2,382.6,246.8,379.5,247z M387.5,238.1c0.3-1.1,0.3-2,0.1-2.9c-0.3-1.4-1.2-2.2-2.6-2.4
		c-1.1-0.1-2.1,0.2-3,0.8c-1.2,0.8-2.2,1.7-3,2.8c-0.3,0.4-0.5,0.4-0.9,0.1c-1.4-1.1-2.8-2.1-4.4-3c-0.7-0.4-1.4-0.7-2.2-0.9
		c-1.2-0.3-2,0.4-2,1.6c0.1,1.3,0.7,2.4,1.6,3.3c0.3-0.2,0.2-0.8,0.6-0.8c0.4,0,0.5,0.4,0.6,0.7c0.2,0.3,0.3,0.6,0.4,0.9
		c0.2,0.5,0.4,0.7,0.9,0.8c1,0.2,1.7,1.1,1.5,2c-0.3-0.3-0.7-0.8-1.1-0.3c-0.4,0.4,0,0.8,0.2,1.2c0.8,1.1,2,1.4,3.3,1.3
		c0.4,0,0.8-0.2,1.1-0.6c0.3-0.4,0.4-0.9,0.2-1.3c-0.3-0.4-0.7,0-1,0.1c-0.1,0-0.1,0.1-0.2,0.1c-0.3,0.2-0.4,0-0.4-0.2
		c-0.2-0.9-0.5-1.7-0.7-2.6c0.6,0.1,1,0.6,1.7,0.4c-0.2-0.6-0.6-0.9-0.9-1.4c1.1-0.1,2.1-0.1,3.2-0.2c-0.1,0.4-0.2,0.6-0.3,0.9
		c0,0.2-0.1,0.4,0,0.6c0.2,0.2,0.4,0,0.6-0.1c0.9-0.5,0.9-0.5,1.2,0.5c0.1,0.2,0.2,0.5,0.2,0.7c0.3,1.2,0.3,1.2-0.8,0.9
		c-0.2-0.1-0.5-0.2-0.6,0c-0.2,0.2,0,0.5,0.2,0.7c0.9,1.4,3.8,1.4,4.7,0c0.1-0.1,0.2-0.3,0.2-0.5c0.1-0.5-0.1-0.9-0.5-1.1
		c-0.4-0.2-0.7-0.1-0.9,0.3c-0.3,0.4-0.4,0.2-0.6-0.1c-0.5-0.8,0.2-1.8,1.2-1.8c0.4,0,0.4-0.1,0.4-0.4c0-0.5,0-0.9,0.1-1.4
		c0.2-0.5,0.4-0.6,0.8-0.2C386.9,237.1,387.1,237.5,387.5,238.1z"/>
	<path class="st7" d="M378.5,249.3c-1,0-2.9-0.2-4.7-1c-0.4-0.1-0.7-0.3-0.9-0.7c-0.1-0.2-0.1-0.4,0-0.6c0.1-0.2,0.3-0.3,0.5-0.2
		c0.1,0,0.2,0,0.3,0.1c3.2,1.3,6.5,1,9.8,0.5c1.8-0.3,3.7-0.7,5.5-1.1c0.1,0,0.3,0,0.4-0.1c0.4,0,0.8,0,1,0.5
		c0.1,0.5-0.2,0.7-0.7,0.8c-0.9,0.2-1.9,0.5-2.8,0.7C384.4,248.9,381.9,249.3,378.5,249.3z"/>
	<path class="st7" d="M376.9,227.1c0.2,0.5,0.7,0.8,1,1.3c-0.8,0.1-1.6,0-2.3,0.2c-0.3,0.1-0.4-0.1-0.3-0.4c0.1-0.3,0.1-0.7,0.2-1.1
		c-0.6,0.1-0.9,0.4-1.3,0.7c-0.3-0.8-0.5-1.6-0.8-2.5c0.5-0.1,0.9,0.4,1.3,0.2c-0.1-0.5-0.5-0.7-0.7-1.1c0.7-0.1,1.4-0.1,2.1-0.2
		c0.3,0,0.5,0,0.4,0.4c-0.1,0.3-0.3,0.7,0,0.9c0.3,0.2,0.6-0.2,0.9-0.4c0.1,0,0.1-0.1,0.2-0.1c0.4,0.8,0.6,1.6,0.8,2.5
		C377.9,227.5,377.5,227,376.9,227.1C376.9,227.1,376.9,227,376.9,227.1C376.9,227.1,376.9,227.1,376.9,227.1z"/>
	<path class="st7" d="M377.5,232.8c-1.2,0-2.2-0.9-2.2-2c0-0.9,0.7-1.6,1.7-1.6c1.1,0,2.2,1,2.3,2
		C379.2,232.1,378.5,232.8,377.5,232.8z"/>
	<path class="st5" d="M342.9,269.3c1.8,0.1,3.6,0.2,5.4,0c0.4,0,0.4,0.3,0.5,0.5c0.6,2.1,0.9,4.3,1.2,6.4c0.4,3.1,0.6,6.3,1.2,9.4
		c0.1,0.6,0.3,0.8,1,0.7c2.9-0.2,5.7-0.9,8.4-1.7c0.2-0.1,0.5-0.1,0.8-0.2c0.2,1.5,0.4,2.9,0.8,4.3c0.1,0.4-0.2,0.5-0.5,0.6
		c-2.5,1-5,1.6-7.6,2c-2.3,0.3-4.6,0.3-6.9,0c-0.5-0.1-0.7-0.3-0.8-0.7c-0.8-2.4-1.1-4.8-1.4-7.3c-0.5-4.6-0.8-9.3-2-13.8
		C342.9,269.5,342.9,269.4,342.9,269.3z"/>
	<path class="st5" d="M422.4,263.8c0.7-0.1,0.6,0.3,0.7,0.6c0.8,2.7,1.6,5.3,2.5,8c1.2,3.5,2.5,7,4.4,10.2c0.2,0.3,0.2,0.5-0.2,0.5
		c-1.6,0.2-3.2,0.4-4.8,0.9c-0.5,0.1-0.5-0.2-0.7-0.4c-1.3-2.1-2.2-4.4-3-6.8c-1.4-3.7-2.5-7.6-3.5-11.4c-0.1-0.5,0-0.7,0.5-0.8
		C419.7,264.3,421.1,263.9,422.4,263.8z"/>
	<path class="st5" d="M338.7,230.7c0.6,2.7,1,5.3,1.3,7.8c0.1,0.6-0.3,0.4-0.6,0.4c-1.2-0.1-2.4-0.4-3.5-0.7c-1.8-0.5-1.8-0.5-2-2.2
		c-0.5-4.8-1.4-9.5-2.5-14.3c-0.2-1-0.4-2.1-0.6-3.2c1.5,0.4,3,0.8,4.5,1.2c2.7,0.8,5.5,1.2,8.3,1.9c2.6,0.7,4.2,2.6,4.3,5.4
		c0.1,1.5-0.6,2.6-1.8,3.4c-0.5,0.4-0.3,0.5-0.1,0.8c1.7,1.8,3.3,3.6,5,5.3c0.4,0.5,0.3,0.6-0.2,0.8c-1.5,0.5-3,1-4.5,1.4
		c-0.4,0.1-0.6,0.1-0.8-0.3c-1.6-2.2-3.2-4.4-4.7-6.7C340.4,230.9,339.5,231.1,338.7,230.7z M337.4,223.8c0.1,1.1,0.4,2.1,0.7,3.2
		c0,0.1,0.2,0.2,0.3,0.2c1.1,0.2,2.2,0.6,3.4,0.5c0.9-0.1,1.4-0.8,1.1-1.6c-0.3-0.7-0.9-1.2-1.6-1.4
		C340,224.2,338.7,224,337.4,223.8z"/>
	<path class="st5" d="M406.7,230.1c0.7,2.4,1.4,4.9,2.1,7.3c0.1,0.5,0.1,0.7-0.5,0.8c-1.1,0.2-2.2,0.3-3.3,0.5
		c-0.7,0.1-1-0.1-1.2-0.8c-1.2-4.7-2.4-9.5-4.2-14c-0.2-0.6-0.5-1.2-0.8-1.9c1.1-0.2,2.3-0.4,3.4-0.8c0.4-0.1,0.7,0.1,1,0.3
		c2.4,1.6,4.4,3.5,6.4,5.5c0.3,0.3,0.6,0.5,0.9,0.8c0,0.1,0,0.1,0.1,0.1c0,0,0-0.1,0-0.2c-0.8-2.4-2-4.5-3.1-6.8
		c-0.4-0.8-0.4-0.8,0.5-0.9c0.5,0,0.9,0,1.4,0c1.5,0.1,2.5,0.6,3.3,2.1c2.4,4.6,4.3,9.4,5.8,14.4c0.2,0.6,0.1,0.7-0.5,0.7
		c-1.1-0.1-2.2-0.1-3.2,0c-0.5,0-0.8-0.1-1-0.5c-1.8-2.1-3.7-4.2-5.8-6C407.6,230.5,407.3,230.2,406.7,230.1c0.1-0.1,0-0.1,0-0.2
		C406.7,230,406.7,230,406.7,230.1z"/>
	<path class="st5" d="M384.2,255.1c0.7,0,1.3,0.5,1.3,1.2c0,0.6-0.5,1.1-1.1,1.1c-0.7,0-1.3-0.6-1.3-1.3
		C383.1,255.6,383.6,255.1,384.2,255.1z"/>
	<path class="st5" d="M387.5,238.1c-0.3-0.5-0.6-1-1-1.3c-0.4-0.4-0.7-0.3-0.8,0.2c-0.2,0.4-0.1,0.9-0.1,1.4c0,0.3,0,0.4-0.4,0.4
		c-1,0-1.7,1-1.2,1.8c0.2,0.3,0.3,0.5,0.6,0.1c0.2-0.3,0.5-0.5,0.9-0.3c0.4,0.3,0.6,0.6,0.5,1.1c0,0.2-0.1,0.3-0.2,0.5
		c-0.9,1.4-3.8,1.4-4.7,0c-0.1-0.2-0.4-0.4-0.2-0.7c0.2-0.2,0.4-0.1,0.6,0c1.2,0.3,1.2,0.3,0.8-0.9c-0.1-0.2-0.2-0.5-0.2-0.7
		c-0.3-1-0.3-1-1.2-0.5c-0.2,0.1-0.4,0.3-0.6,0.1c-0.2-0.1-0.1-0.4,0-0.6c0.1-0.3,0.2-0.5,0.3-0.9c-1.1,0.1-2.1,0.1-3.2,0.2
		c0.2,0.6,0.7,0.9,0.9,1.4c-0.6,0.2-1-0.3-1.7-0.4c0.3,0.9,0.5,1.8,0.7,2.6c0.1,0.2,0.2,0.4,0.4,0.2c0.1,0,0.1-0.1,0.2-0.1
		c0.3-0.1,0.7-0.6,1-0.1c0.3,0.4,0.1,0.9-0.2,1.3c-0.3,0.4-0.7,0.5-1.1,0.6c-1.3,0.1-2.4-0.2-3.3-1.3c-0.3-0.3-0.6-0.8-0.2-1.2
		c0.4-0.4,0.8,0.1,1.1,0.3c0.1-0.9-0.5-1.8-1.5-2c-0.5-0.1-0.8-0.4-0.9-0.8c-0.1-0.3-0.2-0.6-0.4-0.9c-0.2-0.3-0.3-0.7-0.6-0.7
		c-0.4,0-0.3,0.5-0.6,0.8c-0.9-1-1.5-2-1.6-3.3c-0.1-1.2,0.8-1.8,2-1.6c0.8,0.2,1.5,0.5,2.2,0.9c1.6,0.8,3,1.9,4.4,3
		c0.4,0.3,0.6,0.3,0.9-0.1c0.8-1.1,1.8-2.1,3-2.8c0.9-0.6,1.9-0.9,3-0.8c1.4,0.1,2.3,1,2.6,2.4C387.8,236.1,387.8,237,387.5,238.1z"
		/>
	<path class="st5" d="M376.9,227.1C376.9,227.1,376.9,227.1,376.9,227.1C376.9,227,376.9,227.1,376.9,227.1
		C376.9,227.1,376.9,227.1,376.9,227.1z"/>
	<path class="st6" d="M337.4,223.8c1.3,0.2,2.6,0.4,3.8,0.9c0.7,0.3,1.3,0.7,1.6,1.4c0.3,0.8-0.2,1.5-1.1,1.6
		c-1.2,0.1-2.2-0.3-3.4-0.5c-0.1,0-0.2-0.1-0.3-0.2C337.8,225.9,337.4,224.9,337.4,223.8z"/>
	<path class="st6" d="M406.7,230.1c0-0.1,0-0.1,0-0.2C406.7,230,406.8,230,406.7,230.1C406.8,230,406.8,230.1,406.7,230.1z"/>
	<path class="st6" d="M410.7,227.8c0,0.1,0.1,0.2,0,0.2C410.7,228,410.6,227.9,410.7,227.8C410.7,227.9,410.7,227.8,410.7,227.8z"/>
</g>
<g>
	<path class="st8" d="M601.4,271.1c4.8,5,11.4,8.3,18.4,8.3c8.8,0,13.9-4.4,13.9-10.9c0-6.8-4.9-9-11.2-11.8l-9.6-4.2
		c-6.2-2.6-13.5-7.4-13.5-17.2c0-10.2,9-17.7,21.1-17.7c7.9,0,15,3.4,19.6,8.2l-4.5,5.5c-4.1-3.9-9.1-6.3-15.2-6.3
		c-7.5,0-12.5,3.8-12.5,9.8c0,6.4,5.9,8.9,11.1,11.1l9.6,4.1c7.7,3.4,13.7,7.9,13.7,17.8c0,10.6-8.8,19-22.8,19
		c-9.4,0-17.5-3.9-23.3-9.9L601.4,271.1z"/>
	<path class="st8" d="M665.1,218.9h8.5v28h31v-28h8.4v66.7h-8.4v-31.4h-31v31.4h-8.5V218.9z"/>
	<path class="st8" d="M741.1,218.9h38.5v7.1h-29.9v21h25.2v7.2h-25.2v24.2h30.9v7.2h-39.5V218.9z"/>
	<path class="st8" d="M841,285.6l-16.1-28.2h-12v28.2h-8.5v-66.7h21c13.5,0,23.3,4.9,23.3,18.7c0,10.4-5.9,16.6-15,18.9l17,29.1H841
		z M812.9,250.5h11.2c10.4,0,16.1-4.3,16.1-12.9c0-8.8-5.7-11.9-16.1-11.9h-11.2V250.5z"/>
	<path class="st8" d="M873.1,218.9h8.5v66.7h-8.5V218.9z"/>
	<path class="st8" d="M909.6,218.9h8.8l24.2,41.9l7.2,13.8h0.4c-0.4-6.7-1.1-14.2-1.1-21.3v-34.5h8v66.7h-8.8l-24.1-42l-7.2-13.7
		h-0.4c0.4,6.7,1,13.8,1,20.9v34.9h-8V218.9z"/>
	<path class="st8" d="M1012,217.7c9.1,0,15.2,4.2,19.1,8.2l-4.9,5.4c-3.4-3.6-7.5-6.2-14.1-6.2c-13.5,0-22.2,10.4-22.2,27
		c0,16.8,7.9,27.4,22.2,27.4c4.8,0,9.5-1.5,12.1-4v-17.4h-14.1v-7h21.9v28.1c-4.4,4.3-11.8,7.7-20.8,7.7c-17.5,0-30-12.8-30-34.6
		C981.2,230.8,994.1,217.7,1012,217.7z"/>
	<path class="st8" d="M1057.5,218.9h8.5v28h31v-28h8.4v66.7h-8.4v-31.4h-31v31.4h-8.5V218.9z"/>
	<path class="st8" d="M1164,265.3h-24.3l-6.4,20.3h-8.6l22.6-66.7h9.6l22.6,66.7h-9L1164,265.3z M1161.9,258.5l-3.2-10.2
		c-2.3-7.4-4.5-14.8-6.6-22.5h-0.4c-2.1,7.7-4.3,15.1-6.6,22.5l-3.3,10.2H1161.9z"/>
	<path class="st8" d="M1198.4,218.9h10.1l12.9,35.8l4.8,13.6h0.4l4.7-13.6l12.8-35.8h10v66.7h-8v-36.7c0-5.9,0.7-13.8,1.1-19.7h-0.4
		l-5.3,14.9l-12.8,34.9h-4.9l-12.8-34.9l-5.3-14.9h-0.4c0.4,5.9,1,13.8,1,19.7v36.7h-7.8V218.9z"/>
</g>
<g>
	<path class="st8" d="M596.3,306.2h6.3V350H624v5.3h-27.7V306.2z"/>
	<path class="st8" d="M684.7,306.2h6.3v49.1h-6.3V306.2z"/>
	<path class="st8" d="M756.4,306.2h28.4v5.2h-22.1v16.6h18.7v5.2h-18.7v22h-6.3V306.2z"/>
	<path class="st8" d="M845.4,306.2h28.3v5.2h-22v15.4h18.6v5.3h-18.6V350h22.8v5.3h-29V306.2z"/>
	<path class="st8" d="M936.9,306.2h14.6c10,0,16.9,3.4,16.9,12c0,4.9-2.8,9.2-8.6,10.7v0.3c7.2,1.1,11.4,5,11.4,11.8
		c0,9.7-7.6,14.4-18.6,14.4h-15.7V306.2z M950.4,327.2c8.3,0,11.8-3,11.8-8.5c0-5.3-4-7.6-11.5-7.6h-7.6v16H950.4z M951.7,350.4
		c8.4,0,13.3-3.1,13.3-9.7c0-6.1-4.7-8.8-13.3-8.8h-8.5v18.6H951.7z"/>
	<path class="st8" d="M1030.1,330.6c0-15.7,8.7-25.2,21-25.2c12.3,0,21,9.6,21,25.2c0,15.8-8.7,25.7-21,25.7
		C1038.7,356.3,1030.1,346.4,1030.1,330.6z M1065.6,330.6c0-12.2-5.8-19.8-14.5-19.8c-8.8,0-14.6,7.6-14.6,19.8
		c0,12.3,5.8,20.2,14.6,20.2C1059.8,350.8,1065.6,342.9,1065.6,330.6z"/>
	<path class="st8" d="M1156.3,340.4h-17.9l-4.7,15h-6.4l16.6-49.1h7l16.6,49.1h-6.6L1156.3,340.4z M1154.8,335.4l-2.3-7.5
		c-1.7-5.5-3.3-10.9-4.9-16.5h-0.3c-1.6,5.7-3.1,11.1-4.9,16.5l-2.4,7.5H1154.8z"/>
	<path class="st8" d="M1233.8,311.5h-14.9v-5.2h36v5.2H1240v43.9h-6.2V311.5z"/>
</g>
</svg>
